Coordinates
version=1
nRows=8
nColumns=46
inDegrees=yes

Units are S.I. units (second, meters, Newtons, ...)
Angles are in degrees.

endheader
time	pelvis_tilt	pelvis_list	pelvis_rotation	pelvis_tx	pelvis_ty	pelvis_tz	bb_angle	bb_tx	bb_ty	bb_tz	hip_flexion_r	hip_adduction_r	hip_rotation_r	knee_angle_r	knee_angle_r_beta	ankle_angle_r	subtalar_angle_r	mtp_angle_r	crank_angle_r	hip_flexion_l	hip_adduction_l	hip_rotation_l	knee_angle_l	knee_angle_l_beta	ankle_angle_l	subtalar_angle_l	mtp_angle_l	crank_angle_l	lumbar_extension	lumbar_bending	lumbar_rotation	arm_flex_r	arm_add_r	arm_rot_r	elbow_flex_r	pro_sup_r	wrist_flex_r	wrist_dev_r	arm_flex_l	arm_add_l	arm_rot_l	elbow_flex_l	pro_sup_l	wrist_flex_l	wrist_dev_l
      5.00500000	    -22.44551805	     -3.48325125	      5.28012477	      0.37213107	      1.13002251	     -0.26099134	      0.00000000	      0.50000000	      0.00000000	      0.25000000	     58.51431641	     -4.86763397	     -0.79493664	     98.39133818	      1.71725281	    -12.91371838	    -12.48987063	      0.00000000	      0.00000000	     49.83870749	     -0.57688025	      9.06257481	     47.42544609	      0.82773018	    -10.72705234	    -13.53940836	      0.00000000	      0.00000000	    -63.93880794	      4.73605583	     -5.74469020	     52.33079503	    -17.34499765	     21.98588666	     76.98792836	     52.00121677	      0.00000000	      0.00000000	     45.13835628	    -25.60208510	     19.54482362	     92.77886187	     50.65737048	      0.00000000	      0.00000000
      5.01000000	    -22.49603186	     -4.19043158	      5.00220100	      0.37249234	      1.12941721	     -0.26085601	      0.00000000	      0.50000000	      0.00000000	      0.25000000	     59.86398392	     -4.22305072	     -1.06379245	    100.20304651	      1.74887308	    -11.79821772	    -12.68005684	      0.00000000	      0.00000000	     48.52640898	     -1.55756966	      9.17745427	     45.39165315	      0.79223380	    -11.84274837	    -12.98042159	      0.00000000	      0.00000000	    -63.79419504	      5.24321932	     -5.03524248	     52.51530825	    -17.14965975	     22.18738071	     76.99558177	     52.00573396	      0.00000000	      0.00000000	     44.68184097	    -25.71899506	     19.35072861	     92.75193686	     50.63136934	      0.00000000	      0.00000000
      5.01500000	    -22.39069315	     -4.57626969	      4.72796682	      0.37296614	      1.12920938	     -0.26110637	      0.00000000	      0.50000000	      0.00000000	      0.25000000	     61.05858979	     -3.92619455	     -1.07856463	    101.96667246	      1.77965416	    -10.35027519	    -11.99469784	      0.00000000	      0.00000000	     46.93011244	     -2.26485969	      8.96382063	     43.25777757	      0.75499065	    -13.67211006	    -13.38387986	      0.00000000	      0.00000000	    -63.84452253	      5.76202005	     -5.10958825	     53.35770982	    -16.61774315	     23.65222234	     76.35282075	     52.05910443	      0.00000000	      0.00000000	     43.32648969	    -25.98977969	     17.50658414	     93.40436322	     50.58973292	      0.00000000	      0.00000000
      5.02000000	    -22.50298333	     -5.18536521	      4.42247375	      0.37324640	      1.12858709	     -0.26104437	      0.00000000	      0.50000000	      0.00000000	      0.25000000	     62.52635773	     -3.42503021	     -1.35775779	    103.57098899	      1.80765477	     -9.43558452	    -12.19700937	      0.00000000	      0.00000000	     45.68112251	     -3.21400096	      8.87951791	     41.35207675	      0.72172989	    -14.63205426	    -12.78890807	      0.00000000	      0.00000000	    -63.67470927	      6.22531834	     -4.41595735	     53.53637252	    -16.43169622	     23.76365137	     76.39757824	     52.06079081	      0.00000000	      0.00000000	     42.94648211	    -26.13790554	     17.39595406	     93.36511608	     50.56988290	      0.00000000	      0.00000000
      5.02500000	    -22.60732531	     -5.67462612	      4.09773563	      0.37353602	      1.12812207	     -0.26098537	      0.00000000	      0.50000000	      0.00000000	      0.25000000	     63.97578822	     -3.02219465	     -1.56711253	    105.05129061	      1.83349090	     -8.57278227	    -12.32422372	      0.00000000	      0.00000000	     44.42212027	     -4.08170622	      8.61739828	     39.53518166	      0.69001909	    -15.66965371	    -12.30411845	      0.00000000	      0.00000000	    -63.56171107	      6.69386633	     -3.76504529	     53.67335653	    -16.24448755	     23.93378015	     76.46080982	     52.07851542	      0.00000000	      0.00000000	     42.55440247	    -26.28685305	     17.23178197	     93.30587030	     50.54587010	      0.00000000	      0.00000000
      5.03000000	    -22.51693430	     -5.70852309	      3.61563596	      0.37425306	      1.12838790	     -0.26079148	      0.00000000	      0.50000000	      0.00000000	      0.25000000	     65.21857717	     -2.77209642	     -1.25936989	    106.44410039	      1.85780002	     -7.45629965	    -11.70822623	      0.00000000	      0.00000000	     42.67895259	     -4.70725866	      7.81715643	     37.41179834	      0.65295906	    -17.45444974	    -12.49069296	      0.00000000	      0.00000000	    -63.69079010	      6.68155594	     -3.83774881	     54.01835971	    -15.94937801	     24.69210991	     76.50013061	     52.16154936	      0.00000000	      0.00000000	     41.71576266	    -26.49958749	     16.14556118	     93.47230788	     50.48673560	      0.00000000	      0.00000000
      5.03500000	    -22.69605644	     -6.17858498	      3.32299108	      0.37450290	      1.12794023	     -0.26076675	      0.00000000	      0.50000000	      0.00000000	      0.25000000	     66.73897910	     -2.49563368	     -1.56679933	    107.68167551	      1.87939978	     -6.75121922	    -11.90145557	      0.00000000	      0.00000000	     41.54903205	     -5.53073032	      7.52934415	     35.78600749	      0.62458366	    -18.32390910	    -11.78887790	      0.00000000	      0.00000000	    -63.51833740	      7.16556819	     -3.25743967	     54.21202946	    -15.76891918	     24.84439605	     76.55308799	     52.17584662	      0.00000000	      0.00000000	     41.29325128	    -26.65591687	     15.97584788	     93.43771532	     50.46800445	      0.00000000	      0.00000000
      5.04000000	    -22.84167203	     -6.52852256	      2.97213015	      0.37502585	      1.12772168	     -0.26065970	      0.00000000	      0.50000000	      0.00000000	      0.25000000	     68.20638749	     -2.24842183	     -1.76843617	    108.80512663	      1.89900770	     -6.01340079	    -12.04328091	      0.00000000	      0.00000000	     40.33719278	     -6.29800942	      7.03274184	     34.21300982	      0.59712967	    -19.23022221	    -11.15424435	      0.00000000	      0.00000000	    -63.43012926	      7.48385493	     -2.76568735	     54.32769304	    -15.62052714	     25.02747696	     76.62155908	     52.19894220	      0.00000000	      0.00000000	     40.85515561	    -26.82833186	     15.74717717	     93.39143751	     50.44330748	      0.00000000	      0.00000000
